<?xml version="1.0" standalone="no"?>
<!DOCTYPE svg PUBLIC "-//W3C//DTD SVG 20010904//EN"
 "http://www.w3.org/TR/2001/REC-SVG-20010904/DTD/svg10.dtd">
<svg version="1.0" xmlns="http://www.w3.org/2000/svg"
 width="1664.000000pt" height="1820.000000pt" viewBox="0 0 1664.000000 1820.000000"
 preserveAspectRatio="xMidYMid meet">
<g transform="translate(0.000000,1820.000000) scale(0.100000,-0.100000)"
fill="#ffffff" stroke="none">
<path d="M200 18101 c-81 -26 -123 -66 -145 -137 -13 -43 -15 -1056 -15 -8874
0 -8790 0 -8825 20 -8877 24 -63 43 -84 109 -118 l50 -25 7988 0 c5262 0 8018
-4 8075 -10 61 -7 102 -7 135 0 181 41 226 284 75 408 -45 37 -46 37 -136 37
-789 -3 -15880 -4 -15883 -2 -2 2 -4 3932 -6 8733 l-2 8729 -30 45 c-49 72
-160 115 -235 91z"/>
<path d="M13470 15725 c-14 -17 -46 -20 -55 -5 -4 7 -23 2 -51 -14 -37 -21
-49 -23 -64 -14 -19 12 -24 11 -89 -26 -13 -8 -27 -20 -32 -27 -6 -11 -12 -10
-27 4 -23 21 -36 21 -52 3 -7 -9 -29 -15 -53 -15 -72 0 -161 -11 -184 -23 -17
-8 -26 -8 -38 2 -13 11 -19 10 -36 -6 -14 -13 -37 -19 -74 -19 -36 -1 -60 -7
-73 -18 -22 -20 -36 -21 -62 -5 -15 10 -22 9 -37 -2 -40 -33 -58 -38 -78 -24
-16 12 -22 12 -41 -1 -14 -9 -34 -12 -53 -9 -19 4 -37 1 -52 -10 -14 -10 -44
-16 -75 -16 -34 0 -56 -5 -64 -15 -8 -10 -28 -15 -59 -14 -26 1 -57 -4 -70
-10 -13 -7 -36 -10 -52 -7 -22 4 -40 -2 -71 -23 -35 -24 -46 -27 -65 -18 -17
8 -32 6 -63 -8 -30 -13 -43 -15 -53 -7 -14 12 -42 1 -132 -53 -22 -13 -53 -30
-70 -38 -36 -17 -85 -62 -85 -77 0 -6 -10 -24 -21 -40 -20 -26 -21 -38 -17
-132 6 -113 16 -137 89 -222 20 -22 40 -52 44 -66 4 -14 19 -39 32 -57 17 -23
22 -38 17 -57 -6 -27 -8 -28 -125 -89 -41 -21 -92 -49 -114 -62 -22 -13 -53
-32 -70 -40 -16 -9 -48 -27 -70 -41 -22 -13 -53 -31 -70 -39 -16 -9 -48 -27
-70 -40 -22 -13 -53 -32 -70 -40 -16 -9 -48 -27 -70 -40 -22 -14 -54 -32 -72
-42 -18 -10 -78 -45 -134 -78 -55 -33 -129 -76 -164 -95 -35 -19 -67 -39 -72
-43 -4 -5 -21 -15 -38 -23 -16 -8 -48 -25 -70 -38 -22 -14 -53 -32 -70 -41
-16 -8 -48 -27 -70 -40 -22 -14 -53 -32 -70 -40 -16 -9 -48 -27 -70 -40 -22
-13 -53 -31 -70 -39 -16 -8 -34 -18 -38 -23 -5 -4 -37 -24 -72 -43 -58 -32
-144 -83 -234 -137 -20 -12 -49 -29 -66 -37 -16 -9 -48 -27 -70 -40 -22 -14
-53 -32 -70 -40 -16 -9 -48 -27 -70 -40 -22 -14 -53 -32 -70 -40 -16 -9 -48
-27 -70 -41 -22 -13 -53 -32 -70 -40 -16 -9 -48 -27 -70 -41 -22 -13 -53 -31
-70 -40 -16 -8 -47 -25 -67 -37 -20 -12 -82 -49 -138 -82 -57 -33 -119 -70
-139 -82 -20 -12 -49 -29 -66 -37 -16 -9 -48 -27 -70 -40 -22 -14 -53 -32 -70
-41 -16 -8 -48 -27 -70 -40 -22 -14 -53 -32 -70 -40 -16 -9 -48 -27 -70 -40
-22 -13 -53 -32 -70 -40 -16 -9 -48 -27 -70 -41 -22 -13 -53 -31 -70 -40 -16
-8 -48 -26 -70 -40 -22 -13 -52 -30 -67 -36 -16 -7 -28 -16 -28 -20 0 -4 -15
-14 -33 -22 -18 -7 -53 -26 -78 -42 -24 -15 -69 -41 -99 -57 -30 -15 -62 -34
-70 -41 -8 -7 -26 -18 -40 -24 -14 -7 -43 -23 -65 -37 -22 -13 -53 -31 -70
-40 -16 -8 -48 -27 -70 -40 -22 -14 -53 -32 -70 -40 -16 -9 -48 -27 -70 -40
-22 -13 -53 -32 -70 -40 -16 -9 -48 -27 -70 -41 -22 -13 -53 -31 -70 -40 -16
-8 -46 -25 -66 -37 -20 -12 -83 -49 -139 -82 -56 -33 -119 -70 -139 -82 -20
-12 -49 -29 -66 -37 -16 -9 -48 -27 -70 -40 -22 -14 -53 -32 -70 -40 -16 -9
-48 -27 -70 -40 -54 -34 -104 -62 -140 -81 -16 -9 -48 -27 -70 -40 -22 -13
-53 -32 -70 -40 -16 -9 -47 -26 -67 -38 -20 -12 -78 -46 -130 -75 -51 -29
-100 -57 -108 -62 -8 -6 -26 -16 -40 -22 -14 -7 -45 -26 -70 -43 -25 -17 -56
-36 -70 -43 -14 -7 -43 -23 -65 -37 -22 -13 -53 -31 -70 -40 -16 -8 -48 -27
-70 -40 -22 -14 -53 -32 -70 -41 -16 -8 -48 -26 -70 -40 -22 -13 -53 -31 -70
-40 -16 -8 -48 -26 -70 -40 -22 -13 -53 -31 -70 -40 -16 -8 -48 -26 -70 -39
-22 -14 -51 -30 -65 -37 -14 -7 -45 -26 -70 -43 -25 -17 -56 -36 -70 -43 -14
-7 -43 -23 -65 -37 -22 -13 -53 -31 -70 -39 -16 -9 -48 -27 -70 -41 -22 -13
-53 -32 -70 -40 -16 -9 -48 -27 -70 -41 -22 -13 -53 -31 -70 -40 -16 -8 -48
-26 -70 -40 -22 -13 -53 -31 -70 -40 -16 -8 -47 -25 -67 -37 -20 -12 -79 -46
-130 -75 -51 -29 -100 -58 -108 -63 -8 -5 -26 -15 -40 -22 -14 -7 -45 -26 -70
-42 -46 -30 -81 -51 -135 -79 -16 -9 -48 -27 -70 -40 -22 -14 -53 -32 -70 -41
-16 -8 -48 -27 -70 -40 -22 -14 -53 -32 -70 -41 -16 -8 -48 -26 -70 -40 -22
-13 -53 -31 -70 -40 -16 -8 -48 -26 -70 -40 -22 -13 -53 -31 -70 -40 -16 -8
-48 -26 -70 -40 -22 -13 -53 -31 -70 -40 -16 -8 -48 -26 -70 -39 -22 -13 -54
-31 -72 -39 -17 -8 -34 -25 -38 -38 -4 -12 -15 -32 -25 -43 -38 -42 -49 -80
-44 -141 9 -99 60 -203 101 -204 12 0 31 -13 43 -30 19 -26 27 -30 69 -30 31
0 53 -5 61 -15 12 -14 15 -13 32 5 18 19 22 20 42 6 21 -13 26 -12 62 9 122
73 170 102 202 122 21 12 51 30 67 38 17 9 48 27 70 40 22 13 54 31 70 40 17
9 48 27 70 40 22 14 51 30 65 37 14 7 40 23 58 35 18 12 52 31 75 43 23 12 58
32 79 44 52 31 165 97 207 123 20 12 50 29 66 37 17 9 48 27 70 40 22 14 54
32 70 40 17 9 48 27 70 41 22 13 54 32 70 40 17 9 48 27 70 41 22 13 54 31 70
40 17 8 48 26 70 40 22 13 55 31 73 39 17 8 32 19 32 24 0 5 12 12 26 15 14 4
38 15 53 25 46 32 85 55 136 81 52 27 113 63 130 77 6 4 21 14 35 21 14 7 43
24 65 37 22 13 54 31 70 40 17 8 48 26 70 40 22 13 54 32 70 40 17 9 48 27 70
41 22 13 54 31 70 39 17 9 48 27 70 40 22 13 54 32 70 40 17 9 46 26 67 38 20
12 66 40 103 62 37 22 84 50 104 62 20 12 50 29 66 37 17 9 48 27 70 40 22 14
54 32 70 41 17 8 48 27 70 40 22 14 54 32 70 41 17 8 48 26 70 40 22 13 54 31
70 40 17 8 48 26 70 40 22 13 54 31 70 40 17 8 48 26 70 40 22 13 54 31 70 40
17 8 46 25 66 37 20 12 67 40 104 62 37 22 83 50 103 62 21 12 51 29 67 37 17
9 48 27 70 40 22 14 54 32 70 41 17 8 48 27 70 40 22 14 54 32 70 40 17 9 48
27 70 40 22 13 51 30 65 37 14 7 45 26 70 43 25 17 71 43 102 59 31 15 62 34
69 42 6 8 15 14 20 14 8 0 54 25 157 87 21 12 51 29 67 37 17 9 48 27 70 40
22 14 54 32 70 40 17 9 48 27 70 41 22 13 54 32 70 40 17 9 48 27 70 41 22 13
54 31 70 40 17 8 48 26 70 40 22 13 54 31 70 40 17 8 47 25 67 37 20 12 114
67 208 122 95 55 188 110 208 122 50 29 101 58 137 77 17 9 48 27 70 41 22 13
54 32 70 40 17 9 48 27 70 41 22 13 54 31 70 40 17 8 48 26 70 40 22 13 54 31
70 40 17 8 47 25 67 37 20 12 98 58 173 102 75 44 153 90 173 102 20 12 51 29
67 38 17 8 48 27 70 40 22 13 54 31 70 40 17 9 48 27 70 40 22 14 54 32 70 41
17 8 48 26 70 39 22 14 51 30 65 37 14 7 46 27 71 44 25 17 56 35 69 39 14 4
36 15 50 24 27 18 31 20 135 81 39 23 84 50 100 60 17 11 44 26 60 35 17 8 48
26 70 40 22 13 54 32 70 40 17 9 48 27 70 41 22 13 54 31 70 39 17 9 48 27 70
40 22 13 54 32 70 41 57 30 90 50 135 79 57 37 96 60 138 80 17 8 32 19 32 24
0 6 10 13 23 16 12 4 31 15 42 24 59 48 105 57 105 19 0 -11 14 -40 30 -65 17
-24 30 -48 30 -54 0 -28 63 -141 88 -156 15 -10 33 -26 40 -35 7 -10 20 -18
28 -18 8 0 28 -10 44 -21 29 -22 38 -23 141 -16 44 3 66 12 107 41 28 20 55
36 59 36 11 0 87 54 92 65 2 5 30 36 62 69 33 33 61 67 64 76 3 9 17 23 32 31
14 8 32 28 39 46 8 17 22 34 32 37 10 3 29 23 42 45 14 21 39 49 57 62 18 13
36 34 39 47 3 12 19 33 34 45 15 13 33 34 39 46 16 29 35 52 89 106 23 23 42
50 42 59 0 9 7 19 15 22 8 3 24 22 36 42 25 42 51 66 95 88 17 8 37 27 45 42
8 15 25 36 38 46 13 11 28 26 35 34 6 8 27 33 47 56 21 22 55 61 77 86 22 25
43 55 46 68 4 12 21 29 37 38 16 8 35 27 42 42 7 15 26 39 44 55 17 15 35 42
39 60 3 18 15 42 24 55 27 33 26 196 0 220 -10 9 -21 29 -25 43 -4 16 -24 37
-51 54 -24 15 -49 34 -55 42 -17 20 -70 42 -99 41 -14 -1 -32 2 -41 6 -9 4
-21 1 -29 -9z m-680 -674 c16 -32 12 -58 -14 -75 -14 -8 -27 -24 -30 -33 -3
-10 -17 -25 -30 -33 -14 -8 -56 -51 -95 -95 -39 -44 -89 -98 -111 -120 -22
-22 -40 -46 -40 -53 0 -7 -7 -15 -15 -18 -8 -3 -26 -25 -40 -49 -43 -75 -97
-102 -111 -57 -9 29 -87 184 -112 222 -12 19 -28 44 -35 54 -6 10 -22 31 -34
46 -29 35 -29 58 0 69 13 5 29 16 36 25 16 19 62 21 79 4 8 -8 15 -8 25 1 9 7
30 9 55 5 33 -5 44 -2 62 16 19 19 25 20 45 10 18 -10 28 -9 55 5 19 10 44 15
59 12 25 -5 36 -2 89 30 17 11 23 10 37 -3 15 -15 17 -15 33 0 59 57 77 64 92
37z"/>
<path d="M13330 13941 c-94 -29 -163 -95 -199 -191 l-22 -55 0 -6315 0 -6315
220 -3 c255 -3 253 -3 240 75 -14 81 -22 1753 -9 1788 16 42 22 280 8 330 -15
55 -18 6096 -3 6140 7 20 8 173 3 480 -4 248 -9 1143 -11 1990 -2 847 -7 1558
-11 1580 -3 22 -2 46 2 53 8 12 1547 21 1559 9 2 -3 3 -13 2 -23 -1 -15 -7
-7525 -9 -11522 -1 -485 2 -887 5 -892 11 -17 432 -13 442 4 4 8 5 90 1 183
-3 92 -6 2938 -6 6323 l0 6155 -21 47 c-22 48 -103 128 -131 128 -9 0 -27 8
-40 18 -23 16 -90 17 -1010 19 -542 1 -996 -2 -1010 -6z"/>
<path d="M10330 11861 c-96 -30 -167 -99 -200 -197 -21 -59 -21 -66 -22 -5329
l-1 -5270 219 -3 c260 -3 256 -4 243 78 -14 81 -22 1922 -9 1956 14 37 14
1136 0 1183 -15 54 -13 3996 3 4030 10 20 11 102 5 346 -4 176 -9 761 -12
1300 -3 539 -6 1089 -7 1223 -1 133 0 244 3 247 7 7 1539 7 1546 1 4 -4 4
-2673 2 -9385 -1 -530 3 -968 8 -973 5 -5 104 -7 222 -6 l213 3 -1 5295 -1
5295 -21 47 c-26 60 -91 115 -171 145 l-61 23 -967 -1 c-531 0 -977 -4 -991
-8z"/>
<path d="M7325 9782 c-90 -31 -160 -100 -196 -197 l-22 -60 0 -4230 0 -4230
221 -3 c254 -3 255 -2 242 70 -11 56 -16 2440 -6 2457 9 14 10 1297 1 1311
-14 23 -15 818 -1 852 14 34 14 348 0 458 -10 74 -12 613 -2 645 10 36 12 960
2 977 -4 6 -8 324 -9 707 -1 383 -5 716 -9 741 -4 25 -3 51 2 58 7 10 995 18
1542 12 13 0 15 -330 12 -2922 -4 -4786 -3 -5351 6 -5360 5 -5 104 -7 222 -6
l213 3 2 4245 c1 4213 1 4245 -18 4295 -27 67 -69 110 -147 148 l-65 32 -985
2 c-542 0 -994 -2 -1005 -5z"/>
<path d="M4330 7701 c-92 -29 -162 -95 -199 -188 l-21 -53 0 -3197 -1 -3198
218 -3 c255 -3 257 -2 243 69 -5 25 -10 1282 -11 2825 -1 1528 -5 2896 -9
3039 -4 143 -4 263 -1 268 7 8 1550 11 1558 4 2 -3 3 -13 3 -23 -8 -84 -13
-6162 -6 -6172 7 -9 59 -12 223 -10 l214 3 0 3216 c-1 3198 -1 3216 -21 3262
-24 55 -75 101 -150 136 l-55 26 -980 2 c-539 1 -991 -2 -1005 -6z"/>
<path d="M1306 5614 c-53 -17 -149 -103 -161 -146 -4 -13 -13 -37 -20 -54 -12
-26 -15 -369 -15 -2190 l-1 -2159 218 -3 c257 -3 256 -3 242 73 -5 28 -12 917
-15 2015 -3 1081 -7 1981 -8 2000 l-1 35 770 5 c424 3 775 4 782 2 19 -6 20
-19 12 -202 -9 -208 -12 -3907 -4 -3921 11 -16 433 -12 442 5 4 8 5 81 1 163
-3 81 -7 1057 -7 2169 l0 2021 -21 42 c-25 46 -81 96 -150 132 l-45 24 -985 2
c-856 2 -991 0 -1034 -13z"/>
</g>
</svg>
