<?xml version="1.0" standalone="no"?>
<!DOCTYPE svg PUBLIC "-//W3C//DTD SVG 20010904//EN"
 "http://www.w3.org/TR/2001/REC-SVG-20010904/DTD/svg10.dtd">
<svg version="1.0" xmlns="http://www.w3.org/2000/svg"
 width="1672.000000pt" height="1816.000000pt" viewBox="0 0 1672.000000 1816.000000"
 preserveAspectRatio="xMidYMid meet">
<g transform="translate(0.000000,1816.000000) scale(0.100000,-0.100000)"
fill="#ffffff" stroke="none">
<path d="M8288 18138 c-4 -33 -43 -38 -279 -39 -113 0 -230 -4 -260 -9 -30 -5
-90 -14 -134 -20 -44 -6 -100 -16 -125 -21 -25 -6 -78 -17 -118 -24 -40 -8
-80 -19 -90 -24 -9 -5 -37 -12 -62 -16 -25 -4 -56 -13 -70 -20 -14 -7 -44 -16
-65 -20 -22 -4 -47 -13 -55 -20 -8 -7 -31 -15 -51 -19 -19 -3 -53 -15 -74 -26
-22 -11 -44 -20 -50 -20 -6 0 -28 -9 -50 -20 -22 -11 -47 -20 -56 -20 -9 0
-22 -6 -28 -14 -7 -8 -27 -18 -44 -21 -18 -4 -39 -13 -47 -20 -8 -7 -26 -16
-40 -20 -14 -4 -32 -13 -40 -20 -8 -7 -26 -16 -40 -20 -14 -4 -36 -16 -49 -26
-13 -11 -30 -19 -37 -19 -7 0 -29 -10 -48 -22 -96 -63 -155 -98 -163 -98 -6 0
-18 -9 -28 -20 -10 -11 -22 -20 -27 -20 -9 0 -97 -60 -141 -97 -16 -12 -33
-23 -39 -23 -6 0 -18 -7 -27 -15 -53 -49 -107 -95 -112 -95 -52 -1 -520 -470
-676 -678 -10 -13 -25 -31 -34 -40 -8 -10 -32 -42 -52 -72 -21 -30 -65 -93
-98 -140 -32 -47 -66 -98 -75 -115 -21 -41 -45 -82 -78 -134 -16 -25 -35 -58
-42 -75 -8 -17 -19 -38 -24 -46 -6 -8 -14 -26 -20 -40 -5 -14 -14 -32 -20 -40
-15 -24 -60 -126 -60 -137 0 -6 -7 -16 -15 -23 -8 -7 -15 -20 -15 -29 0 -9
-12 -38 -25 -66 -14 -27 -25 -57 -25 -65 0 -9 -6 -24 -14 -35 -7 -11 -17 -36
-21 -55 -4 -19 -13 -44 -19 -55 -7 -11 -16 -38 -20 -60 -4 -21 -14 -51 -21
-65 -7 -14 -16 -45 -20 -70 -4 -25 -13 -57 -21 -71 -7 -14 -16 -50 -20 -80 -4
-30 -12 -65 -19 -79 -7 -14 -16 -56 -20 -95 -4 -38 -12 -81 -18 -95 -5 -14
-15 -79 -23 -145 -7 -66 -18 -151 -24 -190 -18 -110 -15 -663 3 -766 9 -46 19
-122 22 -169 4 -47 13 -103 20 -125 7 -22 16 -71 20 -110 4 -38 13 -81 20 -95
7 -14 15 -49 19 -79 4 -30 13 -66 20 -80 8 -14 17 -46 21 -71 4 -25 13 -56 20
-70 7 -14 17 -44 21 -65 4 -22 13 -49 20 -60 7 -11 16 -37 19 -58 4 -20 11
-39 15 -42 5 -3 14 -22 20 -43 14 -47 22 -64 98 -232 12 -25 26 -56 31 -70 6
-14 15 -32 21 -40 5 -8 15 -26 20 -40 6 -14 21 -43 35 -65 13 -22 31 -53 39
-70 9 -16 27 -48 41 -70 13 -22 31 -53 39 -70 9 -16 43 -68 75 -115 33 -47 77
-109 98 -139 21 -30 48 -66 62 -80 13 -14 31 -38 40 -53 80 -128 499 -546 676
-673 15 -11 37 -28 49 -38 26 -22 137 -100 231 -164 67 -45 93 -61 160 -97 17
-9 48 -28 70 -41 22 -13 72 -41 110 -60 39 -20 77 -40 85 -45 27 -16 129 -60
138 -60 5 0 15 -7 22 -15 7 -8 20 -15 29 -15 9 0 34 -9 56 -20 22 -11 44 -20
50 -20 6 0 28 -9 49 -19 21 -11 52 -23 69 -26 18 -4 41 -13 52 -19 11 -7 38
-16 60 -20 21 -4 51 -14 65 -21 14 -7 45 -16 70 -20 25 -4 57 -13 71 -21 14
-7 50 -16 80 -20 30 -4 68 -13 84 -19 17 -7 59 -16 95 -20 36 -3 85 -13 110
-20 25 -8 81 -17 125 -20 44 -4 118 -13 165 -21 120 -20 661 -20 780 0 47 8
126 17 175 21 50 4 108 13 130 20 22 8 68 16 102 20 35 3 78 12 95 19 18 8 58
17 88 21 30 4 64 12 75 18 11 6 45 16 75 23 65 15 143 40 185 59 17 8 46 17
65 20 19 4 42 13 50 20 8 7 29 15 45 19 17 4 49 16 73 27 23 10 63 28 90 40
71 32 215 100 232 110 8 5 29 16 45 25 17 8 48 26 70 39 22 13 50 28 62 34 12
6 45 26 73 46 28 20 61 40 73 45 12 5 40 23 62 39 22 16 71 51 110 78 38 26
81 59 95 72 14 13 38 32 54 41 29 19 104 83 210 180 162 148 446 453 446 478
0 4 15 23 33 43 17 19 45 55 62 80 16 24 47 66 67 92 21 27 38 55 38 63 0 8 7
17 15 20 8 3 17 15 21 27 4 11 21 41 38 66 17 25 37 57 44 71 7 14 24 43 37
65 58 98 205 404 205 427 0 9 6 21 14 27 8 7 17 30 21 51 4 21 12 44 20 50 7
6 16 27 20 48 3 20 12 46 19 57 7 11 16 38 20 60 4 21 14 51 21 65 7 14 16 45
20 70 4 25 13 57 21 71 7 14 16 50 20 80 4 30 13 68 20 84 6 17 15 62 19 100
4 39 13 86 20 106 7 20 16 76 20 125 3 49 13 125 21 169 21 114 21 667 0 780
-8 44 -17 118 -21 165 -3 47 -12 105 -20 130 -7 25 -16 74 -20 110 -4 35 -12
78 -19 95 -7 16 -16 54 -20 84 -4 30 -13 66 -20 80 -8 14 -17 46 -21 71 -4 25
-13 54 -19 65 -7 11 -16 38 -20 60 -4 22 -13 49 -20 60 -8 11 -17 39 -21 62
-3 23 -12 47 -20 53 -7 6 -16 27 -20 48 -4 20 -12 44 -20 52 -7 8 -15 31 -19
51 -4 21 -13 42 -21 49 -8 7 -15 17 -15 23 0 10 -43 110 -60 137 -5 8 -25 47
-45 85 -19 39 -47 88 -60 110 -13 22 -32 54 -41 70 -8 17 -23 44 -32 60 -25
44 -135 208 -147 220 -6 6 -24 30 -41 55 -16 24 -36 52 -44 61 -8 9 -24 29
-35 44 -119 169 -624 675 -674 675 -3 0 -22 15 -42 33 -19 18 -60 49 -90 70
-30 20 -85 60 -124 87 -38 28 -76 50 -82 50 -7 0 -13 4 -13 10 0 5 -15 17 -32
25 -18 9 -51 27 -73 40 -22 14 -53 32 -70 41 -16 8 -48 26 -70 39 -22 14 -51
29 -65 35 -14 5 -32 15 -40 20 -8 6 -26 15 -40 21 -14 5 -45 19 -70 30 -142
65 -191 86 -232 99 -21 6 -40 15 -43 20 -3 4 -24 11 -47 15 -24 4 -52 13 -63
21 -11 7 -38 16 -60 20 -22 4 -49 13 -60 20 -11 6 -40 15 -65 19 -25 4 -56 13
-70 20 -14 7 -50 15 -81 19 -31 3 -75 13 -99 21 -23 8 -63 15 -89 15 -26 0
-71 7 -101 16 -42 12 -122 17 -330 21 -282 5 -310 9 -310 43 0 32 -97 29 -102
-2z m427 -573 c39 -7 108 -16 154 -20 46 -4 96 -11 110 -17 14 -5 60 -16 101
-23 93 -17 194 -42 240 -60 19 -8 51 -17 70 -20 19 -4 44 -13 55 -20 11 -7 39
-16 63 -20 23 -4 44 -11 47 -15 3 -5 22 -14 43 -20 20 -6 51 -18 67 -25 17 -8
53 -24 80 -36 74 -32 244 -117 290 -144 22 -13 50 -28 62 -34 12 -6 45 -26 72
-46 28 -19 55 -35 60 -35 5 0 31 -17 58 -38 26 -20 68 -51 93 -67 24 -17 51
-36 60 -43 8 -7 33 -27 55 -43 177 -134 498 -461 628 -640 84 -116 107 -150
107 -159 0 -5 4 -10 9 -10 5 0 27 -30 48 -66 21 -36 48 -82 60 -102 12 -20 30
-51 40 -69 18 -31 113 -222 138 -278 50 -109 65 -145 65 -157 0 -8 6 -23 14
-34 8 -11 17 -38 21 -60 4 -21 13 -48 20 -60 8 -12 17 -39 21 -60 3 -21 11
-48 17 -59 6 -11 16 -47 23 -80 7 -33 20 -85 29 -115 8 -30 15 -66 15 -81 0
-15 6 -44 14 -66 8 -22 17 -71 21 -109 3 -38 13 -112 22 -164 22 -134 21 -588
-1 -732 -9 -56 -20 -134 -25 -173 -12 -91 -39 -232 -52 -270 -6 -16 -16 -57
-23 -90 -7 -33 -17 -69 -23 -80 -6 -11 -14 -38 -17 -59 -4 -21 -13 -48 -21
-60 -7 -12 -16 -39 -20 -61 -4 -22 -12 -47 -20 -55 -7 -8 -15 -28 -19 -45 -4
-16 -16 -49 -27 -72 -10 -24 -29 -64 -40 -90 -31 -70 -107 -222 -134 -268 -13
-22 -30 -51 -37 -65 -7 -14 -30 -50 -50 -80 -21 -30 -38 -61 -38 -67 0 -7 -5
-13 -10 -13 -6 0 -14 -8 -18 -18 -8 -21 -29 -50 -103 -145 -30 -40 -59 -80
-65 -89 -29 -52 -354 -388 -474 -490 -87 -73 -203 -160 -277 -208 -29 -18 -53
-37 -53 -42 0 -4 -6 -8 -12 -8 -7 0 -39 -18 -72 -41 -32 -22 -68 -45 -80 -50
-11 -6 -39 -21 -61 -34 -22 -14 -51 -29 -65 -35 -14 -5 -32 -14 -40 -19 -29
-18 -140 -71 -252 -119 -73 -32 -151 -60 -195 -72 -23 -6 -45 -15 -48 -19 -3
-5 -24 -12 -48 -16 -23 -4 -53 -13 -67 -20 -14 -7 -48 -16 -75 -20 -28 -4 -61
-13 -75 -20 -14 -7 -52 -16 -85 -20 -33 -3 -80 -13 -105 -20 -25 -8 -90 -19
-145 -25 -55 -5 -125 -15 -155 -21 -90 -17 -578 -14 -690 4 -52 9 -128 19
-168 22 -40 4 -90 12 -110 19 -20 7 -66 16 -101 20 -36 4 -76 13 -90 20 -14 8
-48 17 -76 21 -27 4 -61 13 -75 20 -14 7 -43 16 -64 19 -21 4 -48 13 -60 21
-12 7 -40 16 -63 20 -24 4 -45 11 -48 15 -3 5 -22 14 -43 20 -20 7 -56 21 -79
31 -24 10 -62 27 -85 38 -63 28 -151 70 -168 81 -8 5 -28 16 -45 24 -52 26
-89 45 -127 69 -20 12 -63 38 -95 57 -75 44 -103 63 -191 130 -202 153 -221
169 -407 355 -180 179 -198 199 -330 370 -52 68 -135 186 -135 192 0 4 -18 34
-41 67 -22 32 -45 68 -50 80 -6 11 -21 39 -34 61 -34 56 -125 241 -125 253 0
5 -7 15 -15 22 -8 7 -15 20 -15 29 0 9 -9 33 -20 54 -11 20 -20 43 -20 50 0 7
-9 30 -20 52 -11 21 -23 55 -26 74 -3 20 -12 46 -20 58 -7 12 -17 41 -20 65
-4 24 -13 52 -20 63 -7 11 -15 38 -19 60 -4 22 -12 56 -20 75 -7 19 -16 60
-19 90 -4 30 -14 78 -21 105 -8 28 -19 97 -25 154 -5 57 -15 123 -21 145 -15
53 -14 598 0 681 6 33 15 103 21 155 6 52 16 113 22 135 6 22 17 72 24 110 17
90 42 190 59 235 8 19 17 51 20 70 4 19 13 44 20 55 7 11 16 39 20 63 4 23 11
44 15 47 5 3 14 22 20 43 6 20 18 51 25 67 8 17 24 53 36 80 44 101 130 271
182 357 12 20 37 63 56 95 19 32 52 80 73 107 21 27 38 53 38 57 0 5 8 17 18
28 9 10 25 29 35 42 117 156 263 320 386 433 34 32 71 65 81 74 61 58 98 90
148 128 31 24 66 50 77 58 141 107 162 122 238 167 32 19 75 44 95 56 97 58
302 163 319 163 6 0 16 7 23 15 7 8 20 15 29 15 9 0 39 11 66 25 28 13 57 25
65 25 9 0 25 6 36 14 11 8 38 18 60 22 21 4 48 13 60 20 11 8 40 18 65 23 24
5 64 16 89 24 71 23 129 37 205 51 39 7 88 18 110 24 22 6 87 16 143 22 57 5
109 13 114 16 39 25 615 24 743 -1z"/>
<path d="M7584 9521 l-16 -23 -162 7 -162 7 -18 -27 -18 -28 -103 7 -104 7
-17 -27 c-18 -26 -19 -26 -100 -20 -80 7 -81 6 -98 -19 -17 -26 -19 -27 -100
-20 -82 7 -82 7 -100 -20 -17 -26 -20 -27 -81 -20 -61 6 -64 5 -81 -20 -16
-24 -22 -26 -59 -20 -38 5 -44 3 -60 -21 -16 -25 -19 -26 -79 -19 -60 6 -64 5
-80 -20 -15 -23 -21 -25 -60 -20 -39 6 -44 4 -60 -20 -16 -24 -22 -26 -60 -21
-39 6 -45 4 -60 -20 -16 -23 -22 -25 -60 -20 -39 6 -45 4 -60 -20 -16 -23 -22
-25 -60 -20 -39 6 -45 4 -60 -19 -13 -20 -23 -25 -41 -21 -17 4 -27 0 -40 -20
-15 -24 -21 -25 -60 -19 -40 5 -45 4 -61 -20 -13 -20 -23 -25 -40 -21 -16 4
-26 -1 -39 -20 -15 -24 -21 -25 -60 -19 -39 5 -46 4 -61 -19 -12 -19 -22 -24
-38 -20 -17 4 -27 -1 -40 -21 -13 -20 -23 -25 -41 -21 -17 4 -27 0 -40 -20
-13 -19 -22 -24 -40 -20 -17 4 -27 0 -40 -20 -13 -19 -22 -24 -40 -20 -17 4
-27 0 -40 -20 -13 -20 -22 -24 -41 -20 -18 5 -27 0 -40 -20 -13 -19 -23 -24
-40 -20 -16 4 -26 -1 -39 -20 -13 -19 -22 -24 -40 -20 -17 4 -27 0 -40 -20
-13 -19 -22 -24 -40 -20 -17 4 -27 0 -40 -20 -13 -20 -22 -24 -41 -20 -18 5
-27 0 -40 -19 -12 -18 -22 -23 -38 -19 -16 4 -30 -6 -61 -41 -30 -36 -44 -45
-61 -41 -16 4 -26 -1 -39 -20 -12 -19 -22 -24 -39 -20 -18 4 -31 -4 -61 -40
-30 -35 -44 -44 -60 -40 -17 4 -31 -5 -60 -40 -30 -35 -44 -44 -60 -40 -17 4
-31 -5 -60 -40 -30 -35 -44 -44 -60 -40 -17 4 -31 -5 -60 -40 -30 -34 -44 -44
-60 -40 -16 4 -34 -9 -80 -60 -46 -50 -65 -64 -80 -60 -16 4 -35 -10 -80 -60
-45 -49 -65 -64 -80 -60 -15 4 -43 -19 -121 -101 -76 -78 -107 -104 -119 -99
-13 5 -58 -35 -179 -159 -113 -116 -168 -165 -184 -165 -30 0 -312 -281 -312
-312 0 -15 -56 -78 -180 -200 -130 -128 -180 -184 -180 -200 0 -17 -26 -48
-85 -103 -64 -60 -83 -84 -79 -98 5 -14 -14 -38 -75 -97 -58 -56 -81 -85 -81
-103 0 -16 -14 -36 -45 -62 -34 -29 -43 -44 -39 -59 4 -17 -10 -35 -60 -81
-51 -46 -64 -64 -60 -80 4 -16 -6 -30 -40 -60 -35 -29 -44 -43 -40 -60 4 -16
-5 -30 -40 -60 -35 -29 -44 -43 -40 -60 4 -16 -6 -30 -41 -60 -36 -31 -45 -44
-40 -62 4 -17 -1 -27 -20 -39 -18 -12 -23 -22 -19 -38 4 -16 -5 -30 -40 -60
-37 -31 -45 -43 -40 -61 4 -18 -1 -28 -20 -40 -19 -13 -24 -23 -20 -39 4 -16
-5 -30 -40 -60 -37 -31 -45 -43 -40 -61 4 -18 -1 -28 -20 -40 -20 -13 -24 -23
-20 -40 4 -18 -1 -27 -20 -40 -20 -13 -24 -23 -20 -40 4 -18 -1 -27 -20 -40
-20 -13 -24 -23 -20 -40 4 -18 -1 -27 -20 -40 -20 -13 -24 -23 -20 -40 4 -18
-1 -27 -20 -40 -20 -13 -24 -23 -20 -40 4 -18 -1 -27 -20 -40 -20 -13 -24 -23
-20 -40 4 -18 -1 -27 -20 -40 -20 -13 -24 -23 -20 -40 4 -18 -1 -27 -20 -40
-20 -13 -24 -23 -20 -40 4 -18 -1 -27 -20 -40 -20 -13 -24 -23 -20 -40 4 -18
-1 -28 -21 -41 -20 -13 -25 -23 -21 -40 4 -16 -1 -26 -20 -38 -22 -15 -24 -22
-19 -59 6 -37 3 -45 -18 -64 -17 -14 -24 -28 -21 -41 4 -13 -3 -24 -21 -36
-24 -16 -25 -21 -20 -61 6 -39 5 -45 -19 -60 -19 -13 -24 -23 -20 -39 4 -17
-1 -27 -21 -40 -24 -16 -25 -21 -20 -61 6 -39 5 -45 -20 -61 -19 -13 -25 -23
-21 -39 4 -15 -2 -28 -20 -44 -22 -19 -25 -28 -19 -61 6 -34 4 -40 -20 -56
-24 -16 -26 -22 -20 -60 5 -39 3 -45 -20 -60 -23 -15 -25 -21 -19 -60 5 -38 3
-44 -20 -60 -24 -15 -26 -21 -21 -58 6 -36 3 -44 -20 -64 -24 -21 -25 -26 -19
-81 6 -56 5 -60 -20 -76 -24 -16 -26 -22 -21 -59 6 -36 3 -44 -20 -64 -25 -22
-26 -27 -20 -82 6 -55 5 -59 -19 -75 -24 -16 -25 -20 -19 -80 5 -59 4 -64 -20
-80 -25 -16 -26 -19 -20 -100 6 -81 5 -83 -20 -100 -25 -16 -26 -20 -20 -77 6
-55 4 -61 -20 -83 -25 -24 -25 -27 -20 -123 6 -95 5 -100 -17 -115 -22 -16
-23 -21 -21 -127 2 -105 1 -112 -18 -117 -20 -5 -21 -12 -21 -139 0 -126 -1
-134 -21 -145 -21 -11 -21 -14 -14 -199 7 -185 7 -189 -14 -202 -25 -15 -33
-208 -9 -208 9 0 9 -3 0 -12 -13 -13 -17 -168 -4 -168 4 0 13 9 20 21 20 31
42 7 42 -46 0 -53 -22 -77 -42 -46 -25 40 -28 20 -28 -167 0 -179 1 -188 21
-200 19 -12 20 -19 14 -82 -6 -63 -5 -69 14 -80 13 -6 21 -21 21 -36 0 -36 51
-84 88 -84 17 0 32 -6 36 -15 4 -12 30 -15 142 -15 l137 0 -6 50 c-3 28 -2 50
3 50 5 0 20 11 33 25 l23 25 21 -24 c14 -16 28 -23 41 -19 13 3 25 -3 36 -18
15 -22 20 -23 160 -20 136 2 145 1 158 -18 l15 -21 7388 0 7388 0 15 21 c13
19 22 20 158 18 140 -3 145 -2 160 20 19 26 49 11 41 -20 -3 -10 5 -30 17 -44
21 -25 23 -25 179 -25 133 0 157 2 157 15 0 10 10 15 33 15 44 1 87 40 87 79
0 21 6 32 20 36 18 6 20 15 20 86 0 86 -2 84 68 80 l32 -3 0 321 0 321 -25 0
c-14 0 -25 4 -25 10 0 5 11 12 25 16 24 6 25 10 25 79 l0 74 -32 3 -33 3 3
197 c3 190 2 197 -18 208 -19 10 -20 20 -20 145 0 126 -1 134 -21 140 -19 6
-20 13 -18 116 2 105 1 110 -21 126 -22 15 -23 20 -17 115 5 96 5 99 -20 123
-24 22 -26 28 -20 83 6 57 5 61 -19 77 -25 16 -26 18 -19 99 7 82 7 82 -20
100 -26 17 -27 20 -20 80 6 60 5 64 -21 80 -25 17 -26 21 -20 77 6 55 5 60
-19 81 -23 20 -26 28 -20 64 5 37 3 43 -21 59 -25 16 -26 20 -20 76 6 54 5 60
-19 81 -22 19 -25 27 -19 63 5 37 3 43 -21 59 -25 16 -26 22 -20 61 5 40 4 45
-20 61 -24 16 -26 22 -20 59 5 38 3 44 -20 59 -24 15 -26 22 -20 56 6 33 3 42
-19 61 -18 16 -24 29 -20 44 4 16 -2 26 -21 39 -25 16 -26 22 -20 61 5 40 4
45 -20 61 -20 13 -25 23 -21 40 4 16 -1 26 -20 39 -24 15 -25 21 -19 60 5 40
4 45 -20 61 -20 13 -25 23 -21 40 4 16 -1 26 -20 39 -23 15 -25 21 -20 59 6
39 4 45 -19 60 -19 13 -24 22 -19 40 4 17 -1 27 -21 40 -20 13 -25 23 -21 41
4 17 0 27 -20 40 -19 13 -24 22 -20 40 4 17 0 27 -20 40 -19 13 -24 22 -20 40
4 17 0 27 -20 40 -19 13 -24 22 -20 40 4 17 0 27 -20 40 -19 13 -24 22 -20 40
4 17 0 27 -20 40 -20 13 -24 22 -20 41 5 18 0 27 -20 40 -19 13 -24 23 -20 40
4 16 -1 26 -20 39 -19 13 -24 22 -20 40 4 17 0 27 -20 40 -19 13 -24 22 -20
40 4 17 0 27 -19 39 -19 12 -24 22 -20 39 5 18 -4 31 -40 62 -36 30 -45 44
-41 61 4 16 -1 26 -20 39 -19 12 -24 23 -20 37 4 16 -7 32 -41 63 -35 32 -44
47 -39 62 5 15 0 25 -20 37 -19 13 -24 23 -20 40 4 18 -4 31 -40 61 -35 30
-44 44 -40 60 4 17 -5 31 -40 60 -35 30 -44 44 -40 60 4 17 -5 31 -40 60 -34
30 -44 44 -40 60 4 16 -9 34 -60 80 -50 46 -64 64 -60 81 4 15 -5 30 -39 59
-31 26 -45 46 -45 62 0 18 -23 47 -81 103 -60 58 -80 83 -75 96 5 12 -16 38
-79 98 -58 55 -85 88 -85 104 0 16 -51 73 -180 200 -128 127 -180 185 -180
201 0 32 -280 311 -312 311 -16 0 -69 47 -184 165 -123 126 -165 164 -179 159
-13 -5 -42 19 -120 100 -78 81 -106 105 -120 100 -13 -5 -33 10 -80 60 -46 49
-67 65 -80 60 -13 -5 -33 10 -80 60 -46 49 -67 65 -80 60 -13 -5 -29 6 -60 39
-30 33 -47 45 -61 41 -15 -4 -31 7 -59 40 -29 35 -43 44 -60 40 -16 -4 -30 5
-60 40 -30 35 -44 45 -59 40 -14 -5 -30 5 -61 39 -31 34 -47 45 -63 41 -14 -4
-25 1 -37 20 -13 19 -23 24 -39 20 -17 -4 -31 5 -61 41 -31 36 -44 45 -62 40
-17 -4 -27 1 -39 20 -12 19 -22 23 -39 19 -18 -4 -27 1 -40 20 -13 20 -23 24
-40 20 -18 -4 -27 1 -40 20 -13 20 -23 24 -40 20 -18 -4 -27 1 -40 20 -13 20
-23 24 -40 20 -18 -4 -27 1 -40 20 -13 20 -23 24 -40 20 -18 -4 -27 1 -40 20
-13 20 -23 24 -40 20 -18 -4 -27 1 -40 20 -13 20 -23 24 -40 20 -18 -4 -27 1
-40 20 -13 20 -23 24 -40 20 -18 -4 -27 1 -40 20 -13 19 -23 24 -39 20 -17 -4
-27 1 -40 21 -16 24 -21 25 -61 20 -39 -6 -45 -5 -60 19 -13 19 -23 24 -39 20
-17 -4 -27 1 -40 21 -16 24 -21 25 -61 20 -39 -6 -45 -5 -60 19 -13 19 -23 24
-39 20 -17 -4 -27 1 -40 21 -16 24 -21 25 -61 20 -39 -6 -45 -5 -61 19 -15 24
-21 26 -59 21 -37 -6 -43 -4 -59 20 -16 24 -21 25 -61 20 -39 -6 -45 -5 -61
19 -15 24 -21 26 -59 21 -37 -6 -43 -4 -59 19 -16 25 -20 26 -80 20 -61 -6
-65 -5 -81 20 -16 24 -22 26 -60 21 -37 -6 -43 -4 -59 20 -17 25 -20 26 -79
20 -58 -6 -63 -5 -85 19 -22 26 -25 26 -101 20 -78 -7 -79 -6 -97 21 -18 27
-18 27 -99 20 -81 -6 -82 -6 -99 20 l-18 27 -103 -7 -103 -7 -17 26 -18 26
-162 -6 c-161 -7 -162 -7 -178 16 l-16 23 -746 1 -746 1 -15 -24z m841 -555
l16 -24 303 5 304 6 18 -27 18 -28 142 7 142 7 17 -26 18 -26 102 6 103 7 17
-27 c17 -26 19 -26 100 -20 82 7 83 6 100 -20 17 -25 20 -26 80 -20 60 6 64 5
80 -19 16 -25 20 -26 80 -20 60 5 64 4 80 -21 16 -24 22 -26 59 -21 36 6 44 3
64 -20 21 -24 26 -25 81 -19 56 6 60 5 76 -20 16 -24 22 -26 61 -20 38 5 44 3
60 -20 15 -24 21 -26 60 -20 38 5 44 3 60 -20 15 -24 21 -26 60 -20 38 5 44 3
59 -20 13 -19 23 -24 39 -20 17 4 27 -1 40 -21 16 -24 21 -25 61 -20 39 6 45
5 60 -19 13 -20 23 -24 40 -20 18 4 28 -1 41 -21 15 -23 21 -25 60 -19 38 5
44 3 59 -20 13 -20 23 -24 40 -20 18 4 27 -1 40 -20 13 -20 23 -24 40 -20 18
4 27 -1 40 -20 13 -20 23 -24 40 -20 18 4 27 -1 40 -20 13 -20 23 -24 40 -20
18 4 27 -1 40 -20 13 -20 23 -24 40 -20 18 4 27 -1 40 -20 13 -20 23 -24 40
-20 18 4 27 -1 40 -20 13 -19 23 -24 39 -20 15 3 28 -3 43 -20 14 -15 29 -23
40 -20 14 4 30 -8 58 -40 30 -36 43 -44 61 -40 17 4 27 -1 39 -20 13 -19 23
-24 39 -20 17 4 31 -5 61 -41 31 -36 44 -45 62 -40 17 4 27 -1 39 -20 12 -18
22 -23 38 -19 17 4 31 -5 61 -40 29 -34 44 -45 58 -40 14 5 34 -9 78 -55 39
-42 66 -61 82 -61 16 0 37 -15 63 -45 29 -34 43 -44 57 -39 15 5 34 -9 82 -60
45 -48 67 -65 79 -60 12 5 38 -16 95 -75 54 -55 86 -81 102 -81 16 0 58 -36
141 -120 77 -78 126 -120 139 -120 30 0 609 -580 609 -610 0 -14 40 -61 121
-140 93 -91 120 -123 115 -136 -5 -14 14 -38 80 -100 62 -59 85 -87 80 -99 -4
-11 14 -35 60 -79 50 -48 65 -68 60 -82 -4 -15 10 -34 60 -79 50 -46 64 -64
60 -81 -4 -15 6 -30 40 -59 35 -30 44 -44 40 -60 -4 -17 5 -31 40 -60 35 -30
44 -44 40 -60 -4 -17 5 -31 40 -60 35 -30 44 -44 40 -61 -4 -16 1 -26 19 -38
16 -10 25 -26 25 -41 0 -16 14 -39 41 -64 31 -29 40 -43 35 -58 -5 -15 1 -25
20 -38 18 -11 24 -23 21 -36 -4 -14 8 -32 40 -63 33 -33 43 -49 39 -64 -5 -14
1 -24 20 -36 19 -13 24 -23 20 -41 -4 -17 0 -27 20 -40 19 -13 24 -22 20 -40
-4 -17 0 -27 20 -40 19 -13 24 -22 20 -40 -4 -17 0 -27 20 -40 19 -13 24 -22
20 -40 -4 -17 0 -27 20 -40 19 -13 24 -22 20 -40 -4 -17 0 -27 20 -40 19 -13
24 -22 20 -40 -4 -17 0 -27 20 -40 19 -13 24 -22 20 -40 -4 -17 0 -27 20 -40
19 -13 24 -22 20 -40 -4 -17 0 -27 20 -40 19 -13 24 -22 20 -40 -4 -17 0 -27
20 -40 23 -15 26 -22 20 -56 -5 -33 -3 -42 19 -61 17 -15 23 -28 19 -43 -4
-16 2 -26 21 -39 20 -13 25 -23 21 -41 -4 -17 0 -27 20 -40 24 -15 25 -21 19
-60 -5 -40 -4 -45 20 -61 20 -13 25 -23 21 -40 -4 -16 1 -26 20 -39 23 -15 25
-21 20 -59 -6 -39 -4 -45 20 -60 23 -16 25 -22 20 -60 -6 -39 -4 -45 19 -60
23 -15 25 -21 20 -60 -6 -39 -4 -44 20 -60 24 -16 26 -22 21 -60 -6 -39 -4
-45 20 -60 23 -16 25 -22 20 -60 -6 -39 -4 -45 20 -61 25 -16 26 -20 20 -81
-6 -60 -5 -64 20 -80 23 -16 25 -22 19 -59 -5 -38 -3 -44 21 -60 25 -16 26
-20 20 -80 -6 -60 -5 -63 20 -80 26 -17 26 -18 20 -100 -7 -81 -7 -82 20 -100
25 -16 26 -20 20 -80 -6 -60 -5 -63 20 -80 26 -17 27 -18 20 -100 -6 -81 -6
-83 20 -100 l27 -17 -7 -103 -6 -102 26 -18 27 -17 -6 -123 -6 -123 26 -17 26
-17 -7 -163 -7 -162 26 -17 25 -16 0 -295 0 -295 -7765 0 -7765 0 0 295 0 295
25 16 26 17 -7 162 -7 163 27 17 26 17 -6 123 -7 123 27 17 26 18 -6 102 -7
103 27 18 c27 17 27 18 21 100 -7 81 -7 82 19 99 25 17 26 20 20 80 -6 60 -5
64 20 81 27 17 27 18 21 100 -7 81 -7 82 19 99 25 17 26 20 20 80 -6 60 -5 64
20 80 24 16 26 22 20 61 -5 38 -3 44 20 59 25 17 26 20 20 80 -6 60 -5 64 20
80 24 16 26 22 20 61 -5 38 -3 44 20 60 24 15 26 21 20 60 -5 38 -3 44 20 60
24 15 26 21 20 60 -5 38 -3 44 20 59 23 15 25 22 19 60 -5 38 -3 45 21 60 19
13 24 23 20 39 -3 15 3 28 21 44 23 20 26 28 20 62 -6 34 -4 41 20 56 23 15
25 21 19 60 -5 38 -3 44 20 59 20 13 24 23 20 40 -4 18 1 28 21 41 19 13 25
23 21 39 -4 15 2 28 19 43 20 17 23 27 18 57 -5 31 -2 41 20 61 16 15 24 30
20 43 -3 13 3 25 21 36 20 13 24 23 20 40 -4 18 1 27 20 40 20 13 24 23 20 40
-4 18 1 27 20 40 20 13 24 23 20 40 -4 18 1 27 20 40 20 13 24 23 20 40 -4 18
1 27 20 40 20 13 24 23 20 40 -4 18 1 27 20 40 20 13 24 23 20 40 -4 18 1 27
20 40 20 13 24 23 20 40 -4 18 1 27 20 40 20 13 24 23 20 40 -4 18 1 28 20 41
19 12 25 22 20 36 -4 15 6 31 39 64 32 31 44 49 40 63 -3 13 3 25 21 36 19 13
25 23 20 38 -5 15 4 29 35 58 27 25 41 48 41 64 0 15 9 31 25 41 19 12 24 22
19 37 -5 15 4 30 40 63 33 30 44 47 40 59 -5 13 6 29 39 60 33 30 45 47 41 61
-4 15 7 31 40 59 34 29 44 44 40 59 -4 17 10 35 60 81 51 46 64 64 60 79 -5
14 9 34 60 81 49 46 65 67 60 80 -5 12 16 38 80 100 62 60 84 88 80 100 -5 12
26 49 115 135 82 80 121 126 121 140 0 31 579 610 610 610 14 0 60 39 140 121
89 91 123 120 136 115 12 -5 38 16 99 80 62 65 87 85 100 80 13 -5 34 11 80
60 48 51 67 65 82 60 14 -5 28 5 57 39 26 30 47 45 63 45 16 0 43 19 83 61 42
44 63 60 75 55 12 -4 30 8 60 40 29 33 48 45 59 41 11 -4 24 2 38 18 14 17 28
23 42 19 16 -4 31 6 61 41 30 36 44 45 61 41 16 -4 26 1 39 20 12 19 22 24 39
20 18 -4 31 4 61 40 30 35 44 44 61 40 16 -4 26 1 39 20 13 19 22 24 40 20 17
-4 27 0 40 20 13 19 22 24 40 20 17 -4 27 0 40 20 13 19 22 24 40 20 17 -4 27
0 40 20 13 19 22 24 40 20 17 -4 27 0 40 20 13 19 22 24 40 20 17 -4 27 0 40
20 13 19 22 24 40 20 17 -4 27 0 40 20 13 19 22 24 40 20 17 -4 27 0 40 20 15
23 21 25 59 20 39 -6 45 -4 60 19 13 20 23 25 41 21 17 -4 27 0 40 20 15 23
21 25 59 20 39 -6 45 -4 60 19 13 20 23 25 41 21 17 -4 27 0 40 20 15 24 22
26 60 21 38 -6 45 -4 60 19 15 23 21 25 59 20 39 -6 45 -4 60 20 16 23 22 25
60 20 39 -6 45 -4 61 20 16 25 20 26 76 20 55 -6 60 -5 81 19 20 23 28 26 65
20 38 -5 44 -3 59 21 17 25 21 26 80 21 59 -6 63 -5 79 20 16 24 20 25 80 20
60 -6 64 -5 80 20 17 25 19 26 100 19 81 -6 83 -6 100 20 l17 27 103 -6 c103
-6 104 -6 120 20 l17 26 143 -7 142 -7 18 27 17 27 303 -7 302 -7 17 25 c24
38 137 39 161 2z m-8271 -7985 c11 -18 -6 -41 -30 -41 -23 0 -34 27 -17 43 9
10 41 8 47 -2z m-55 -80 c19 -12 6 -41 -19 -41 -13 0 -20 7 -20 18 0 31 14 39
39 23z m16525 -87 c10 -26 7 -89 -5 -101 -22 -22 -39 -2 -39 46 0 58 29 95 44
55z m-16464 -283 c0 -15 -29 -33 -45 -27 -18 7 -20 43 -2 49 14 5 47 -10 47
-22z m107 2 c4 -11 -1 -22 -15 -31 -29 -19 -28 -32 2 -32 30 0 42 -16 26 -35
-18 -21 -48 -18 -55 5 -8 24 -30 26 -39 4 -7 -18 -47 -16 -53 3 -3 7 7 15 21
19 14 3 28 14 31 24 3 10 12 21 20 24 8 3 15 12 15 21 0 21 39 19 47 -2z"/>
</g>
</svg>
